<svg id="Layer_1" enable-background="new 0 0 512 512" viewBox="0 0 512 512" xmlns="http://www.w3.org/2000/svg"><path d="m256 303.854c27.312 0 49.453 21.869 49.453 48.846s-22.141 48.847-49.453 48.847-49.453-21.87-49.453-48.847 22.141-48.846 49.453-48.846zm0-208.381c37.762 0 68.375 30.613 68.375 68.375s-30.613 68.374-68.375 68.374c-37.763 0-68.375-30.613-68.375-68.375 0-10.666 2.443-20.761 6.799-29.757l-28.058-28.058c-10.767 16.656-17.02 36.506-17.02 57.815 0 58.903 47.75 106.653 106.653 106.653s106.653-47.75 106.653-106.653-47.75-106.653-106.653-106.653c-21.31 0-41.158 6.253-57.815 17.02l28.059 28.058c8.997-4.355 19.091-6.799 29.757-6.799zm85.223 220.199c0 26.977 22.141 48.847 49.454 48.847 27.312 0 49.453-21.87 49.453-48.847s-22.141-48.847-49.453-48.847c-27.313 0-49.454 21.87-49.454 48.847zm-200.953-229.563 28.188.802 69.407 69.407c-.964 2.319-1.498 4.862-1.498 7.53 0 10.843 8.79 19.633 19.633 19.633 10.842 0 19.632-8.79 19.632-19.633s-8.79-19.632-19.632-19.632c-2.668 0-5.211.533-7.53 1.497l-69.407-69.406-.802-28.189-39.617-39.618 1.114 39.104-39.104-1.114zm-18.947 278.41c27.312 0 49.454-21.87 49.454-48.847s-22.141-48.847-49.454-48.847-49.453 21.869-49.453 48.847 22.141 48.847 49.453 48.847zm74.002 30.028c-7.058-13.284-18.279-24.055-31.893-30.545-11.331 9.685-26.078 15.518-42.109 15.518s-30.778-5.833-42.109-15.518c-23.598 11.247-40.009 35.358-40.009 63.119v35.117c0 2.329 1.906 4.235 4.236 4.235h115.441v-2.324c0-28.737 14.45-54.233 36.443-69.602zm102.784 6.482c-11.33 9.685-26.078 15.518-42.109 15.518s-30.779-5.833-42.109-15.518c-23.598 11.247-40.009 35.358-40.009 63.119v35.116c0 2.33 1.906 4.236 4.235 4.236h155.765c2.33 0 4.235-1.906 4.235-4.236v-35.116c.001-27.761-16.41-51.872-40.008-63.119zm134.677-37.028c-11.331 9.685-26.078 15.518-42.109 15.518-16.032 0-30.779-5.832-42.109-15.518-13.613 6.49-24.834 17.261-31.893 30.545 21.994 15.369 36.443 40.866 36.443 69.601v2.324h115.441c2.33 0 4.236-1.906 4.236-4.235v-35.116c-.001-27.761-16.412-51.871-40.009-63.119z"/></svg>