<svg id="Layer_1" enable-background="new 0 0 512 512" viewBox="0 0 512 512" xmlns="http://www.w3.org/2000/svg"><path clip-rule="evenodd" d="m152.252 261.728v-54.104c-20.271 4.972-35.113 23.337-35.113 44.687v23.015l32.524-13.168c.812-.329 1.696-.48 2.589-.43zm39.784 15.764v-71.179h-27.784v59.93zm78.2 4.117v-75.296h-66.2v76.038l32.183 13.03zm39.784-16.108v-59.182l-27.784-.006v70.437zm45.28 9.825v-23.015c0-20.654-13.898-38.576-33.28-44.196v53.793zm-286.195 123.541c5.454 1.363 10.838 1.211 16.029-.821v-48.093c-16.417-6.426-35.056 5.629-35.056 24.047.001 11.771 7.944 21.876 19.027 24.867zm318.115-61.42c-3.147.807-6.097 1.981-8.798 3.469-1.919 1.054-3.105 3.062-3.107 5.25l-.01 55.665c-.001 2.409 1.42 4.486 3.469 5.441 6.496 3.253 12.684 4.846 20.059 4.418v49.331l-76.057-30.793c-1.393-.564-2.997-.609-4.499 0l-76.057 30.794v-155.139l78.307-31.705 78.306 31.704v30.425c-3.948-.229-7.775.156-11.613 1.14zm9.385 10.796c-3.311 0-6.347.554-9.3 1.71v48.093c16.416 6.426 35.056-5.628 35.056-24.047 0-14.227-11.53-25.756-25.756-25.756zm-116.051-278.901c-24.483-24.483-64.185-24.484-88.668 0-24.484 24.484-24.484 64.184 0 88.668s64.184 24.484 88.668 0 24.483-64.184 0-88.668zm-91.441 102.304h-68.981c-4.352 0-7.933-3.582-7.933-7.933v-13.935c0-4.352 3.582-7.933 7.933-7.933h46.886c4.761 11.685 12.402 21.917 22.095 29.801zm116.309-29.801h46.887c4.352 0 7.933 3.582 7.933 7.933v13.935c0 4.351-3.582 7.933-7.933 7.933h-68.982c9.693-7.885 17.333-18.114 22.095-29.801zm-224.166 52.031c-11.458-11.45-30.23-11.444-41.696.04-11.411 11.428-11.41 30.197.032 41.639l20.836 20.836 20.836-20.836c11.449-11.451 11.451-30.22-.008-41.679zm-36.112 4.897c13.587-13.587 36.899-3.905 36.899 15.284s-23.312 28.871-36.899 15.284c-8.442-8.442-8.443-22.126 0-30.568zm15.284 5.669c5.312 0 9.615 4.303 9.615 9.615 0 8.545-10.377 12.838-16.415 6.8s-1.746-16.415 6.8-16.415zm343.903 24.719v36.467c0 3.314-2.686 6-6 6s-6-2.686-6-6v-94.43c0-3.314 2.686-6 6-6l76.674.003c5.793.005 8.21 7.494 3.492 10.872zm-330.725 76.722c26.102-10.568 52.204-21.136 78.307-31.704l78.307 31.704v155.138l-76.057-30.793c-1.393-.564-2.997-.609-4.5 0l-76.057 30.794v-49.332c7.377.428 13.562-1.163 20.059-4.417 2.049-.955 3.469-3.032 3.469-5.441v-55.665c-.002-2.113-1.134-4.161-3.117-5.25-6.16-3.388-13.33-5.019-20.411-4.608z" fill-rule="evenodd"/></svg>