<svg id="Layer_1" height="512" viewBox="0 0 512 512" width="512" xmlns="http://www.w3.org/2000/svg" data-name="Layer 1"><path d="m504 321.285h-141.326v130.2h141.326a8 8 0 0 0 8-8v-114.2a8 8 0 0 0 -8-8zm-430.361-155.743c-12.757 2.826-19.518 15.408-17.65 32.869 2.02 18.861 13.63 38.379 29.562 38.379 15.889 0 27.462-19.485 29.482-38.323 1.868-17.5-4.851-30.109-17.565-32.925a50.6 50.6 0 0 0 -23.829 0zm-37.587 150.025c32.817-.3 66.1-.3 98.918 0 .052 0 .1.01.151.01a15.86 15.86 0 0 0 15.79-15.479c.189-9.625.118-19.386-.212-29.024a9.685 9.685 0 0 0 -.146-1.274 30.934 30.934 0 0 0 -15.545-21.206 7.753 7.753 0 0 0 -1.916-.751c-10.129-2.509-20.461-4.84-30.713-6.93a7.982 7.982 0 0 0 -6.888 1.845l-9.982 8.8-9.969-8.8a8.015 8.015 0 0 0 -6.9-1.845c-10.24 2.087-20.581 4.421-30.71 6.93a7.7 7.7 0 0 0 -1.911.751 30.9 30.9 0 0 0 -15.541 21.206 6.909 6.909 0 0 0 -.146 1.274c-.33 9.634-.4 19.4-.212 29.024a15.793 15.793 0 0 0 15.932 15.469zm390.279-107.277c16.88 0 29.189-20.867 31.35-41.036 2-18.649-5.11-32.057-18.55-35.039a54.317 54.317 0 0 0 -25.59 0c-13.493 2.991-20.64 16.38-18.649 34.973 2.17 20.2 14.516 41.1 31.439 41.1zm11.261 7.7-11.3 9.978-11.3-9.978a8.021 8.021 0 0 0 -6.9-1.84c-11.11 2.265-22.334 4.8-33.355 7.525a7.923 7.923 0 0 0 -1.915.75 32.926 32.926 0 0 0 -16.541 22.575 8.774 8.774 0 0 0 -.151 1.27c-.358 10.454-.429 21.055-.231 31.505a16.546 16.546 0 0 0 16.621 16.14c35.681-.331 71.861-.331 107.542 0h.146a16.526 16.526 0 0 0 16.47-16.14c.2-10.45.132-21.051-.226-31.505a8.774 8.774 0 0 0 -.152-1.27 32.94 32.94 0 0 0 -16.541-22.579 7.879 7.879 0 0 0 -1.92-.75c-11.021-2.727-22.24-5.26-33.35-7.525a8.02 8.02 0 0 0 -6.9 1.84zm-181.531-58.167c20.829 0 36.1-26.377 38.828-51.876 2.491-23.221-6.138-39.866-22.518-43.484a69.18 69.18 0 0 0 -32.619 0c-16.451 3.628-25.122 20.248-22.65 43.4 2.736 25.542 18.06 51.961 38.959 51.961zm-69.408 23.467a40.9 40.9 0 0 0 -20.55 28.052 8.172 8.172 0 0 0 -.151 1.269c-.472 13.757-.571 27.7-.3 41.446a19.238 19.238 0 0 0 19.173 18.8h.175c47.107-.434 94.889-.434 142 0h.184a19.234 19.234 0 0 0 19.168-18.8c.269-13.757.17-27.7-.3-41.446a9.426 9.426 0 0 0 -.146-1.269 40.916 40.916 0 0 0 -20.55-28.052 7.965 7.965 0 0 0 -1.921-.75c-14.512-3.591-29.288-6.926-43.922-9.913a7.994 7.994 0 0 0 -6.888 1.845l-16.625 14.663-16.621-14.663a7.994 7.994 0 0 0 -6.888-1.845c-14.63 2.987-29.41 6.322-43.918 9.913a7.816 7.816 0 0 0 -1.92.75zm160.018 140v-19.753a8.005 8.005 0 0 0 -8-8h-165.341a8.005 8.005 0 0 0 -8 8v149.95h181.341v-130.2zm-197.345 18.027h-141.326a8 8 0 0 0 -8 8v96.173a8 8 0 0 0 8 8h141.326zm88.756 13.441a8 8 0 0 1 1.557-11.2l15.781-11.922a8 8 0 0 1 12.822 6.388v64.976h7.158a8 8 0 1 1 0 16h-30.322a8 8 0 0 1 0-16h7.162v-48.912l-2.958 2.227a7.983 7.983 0 0 1 -11.2-1.557z" fill-rule="evenodd"/></svg>